<!-- Generated by IcoMoon.io -->
<svg version="1.1" xmlns="http://www.w3.org/2000/svg" width="34" height="32" viewBox="0 0 34 32">
<title>dagger</title>
<path d="M21.877 30.259l-1.477-10.309c0.006-0.431 0.281-0.797 0.665-0.935l0.007-0.002 10.333-1.472c0.403 0 0.672-0.403 0.672-0.938l-0.805-5.758c0-0.4-0.403-0.669-0.941-0.669l-10.334 1.472c-0.431-0.004-0.797-0.279-0.937-0.662l-0.002-0.007-1.474-10.31c0-0.4-0.403-0.669-0.941-0.669l-5.773 0.803c-0.402 0-0.67 0.402-0.67 0.938l1.477 10.309c-0.006 0.431-0.281 0.796-0.665 0.935l-0.007 0.002-10.334 1.472c-0.402 0-0.67 0.403-0.67 0.938l0.805 5.758c0 0.4 0.403 0.669 0.939 0.669l10.336-1.472c0.431 0.004 0.797 0.279 0.937 0.662l0.002 0.007 1.475 10.31c0 0.4 0.403 0.669 0.939 0.669l5.771-0.803c0.391-0.141 0.666-0.506 0.672-0.937v-0.001z"></path>
</svg>
