<!-- Generated by IcoMoon.io -->
<svg version="1.1" xmlns="http://www.w3.org/2000/svg" width="32" height="32" viewBox="0 0 32 32">
<title>Instagram</title>
<path d="M23.171 0h-14.342c-4.876 0-8.829 3.953-8.829 8.829v0 14.342c0 4.876 3.953 8.829 8.829 8.829v0h14.342c4.876 0 8.829-3.953 8.829-8.829v0-14.342c0-4.876-3.953-8.829-8.829-8.829v0zM29.159 23.171c-0.004 3.306-2.683 5.984-5.988 5.988h-14.342c-3.306-0.004-5.984-2.683-5.988-5.988v-14.342c0.012-3.302 2.686-5.976 5.987-5.988h14.343c3.306 0.004 5.984 2.683 5.988 5.988v14.342z"></path>
<path d="M16 7.763c-4.544 0-8.26 3.693-8.26 8.237 0.004 4.56 3.7 8.256 8.26 8.26h0c4.561-0.004 8.257-3.701 8.26-8.261v-0c0-4.543-3.716-8.236-8.26-8.236zM16 21.421c-2.982 0-5.42-2.415-5.42-5.396 0.023-3.007 2.438-5.421 5.42-5.421s5.42 2.415 5.42 5.396c-0.008 2.99-2.43 5.411-5.419 5.42h-0.001zM24.592 5.348c-0.005-0-0.010-0-0.015-0-0.57 0-1.086 0.236-1.453 0.616l-0.001 0.001c-0.378 0.378-0.614 0.922-0.614 1.466 0 0.545 0.212 1.089 0.615 1.469 0.378 0.378 0.922 0.614 1.468 0.614 0.005 0 0.010 0 0.015 0 0.57 0 1.084-0.236 1.452-0.615l0-0.001c0.378-0.378 0.615-0.922 0.615-1.468 0-0.004 0-0.009 0-0.014 0-0.57-0.236-1.084-0.615-1.452l-0.001-0c-0.362-0.38-0.872-0.617-1.437-0.617-0.011 0-0.022 0-0.034 0l0.002-0z"></path>
</svg>
