<!-- Generated by IcoMoon.io -->
<svg version="1.1" xmlns="http://www.w3.org/2000/svg" width="33" height="32" viewBox="0 0 33 32">
<title>Linkidin</title>
<path d="M7.587 10.4h-7.185v21.6h7.185v-21.6zM31.183 12.372c-1.504-1.639-3.51-2.476-5.983-2.476-0.902 0-1.738 0.102-2.508 0.335-0.735 0.234-1.37 0.535-1.905 0.937-0.5 0.401-0.935 0.769-1.236 1.137-0.3 0.335-0.567 0.701-0.835 1.136v-3.076h-7.152l0.033 1.037c0 0.703 0.033 2.842 0.033 6.454 0 3.61 0 8.291-0.033 14.109h7.152v-12.036c0-0.736 0.067-1.338 0.233-1.772 0.303-0.736 0.771-1.372 1.372-1.873 0.602-0.502 1.37-0.735 2.305-0.735 1.236 0 2.173 0.433 2.74 1.303 0.602 0.87 0.87 2.073 0.87 3.578v11.535h7.152v-12.371c0.033-3.177-0.703-5.584-2.24-7.222zM4.044 0c-1.203 0-2.172 0.368-2.908 1.071-0.768 0.701-1.136 1.571-1.136 2.641 0 1.069 0.368 1.939 1.103 2.675 0.736 0.703 1.673 1.069 2.874 1.069h0.033c1.236 0 2.207-0.367 2.941-1.069 0.736-0.703 1.103-1.606 1.103-2.676 0-1.069-0.4-1.972-1.103-2.673-0.735-0.669-1.705-1.037-2.908-1.037z"></path>
</svg>
