<!-- Generated by IcoMoon.io -->
<svg version="1.1" xmlns="http://www.w3.org/2000/svg" width="35" height="32" viewBox="0 0 35 32">
<title>Star</title>
<path d="M16.78 26.732l8 4.877c1.561 0.976 3.317-0.389 2.927-2.147l-2.147-9.171 7.22-6.243c1.367-1.171 0.587-3.317-1.171-3.513l-9.365-0.78-3.707-8.585c-0.338-0.698-1.041-1.171-1.854-1.171s-1.516 0.473-1.849 1.159l-0.005 0.012-3.707 8.78-9.367 0.781c-1.756 0-2.341 2.147-1.169 3.317l7.22 6.243-2.147 9.172c-0.391 1.756 1.365 2.927 2.927 2.147l8.195-4.88z"></path>
</svg>
