<!-- Generated by IcoMoon.io -->
<svg version="1.1" xmlns="http://www.w3.org/2000/svg" width="40" height="32" viewBox="0 0 40 32">
<title>twiter</title>
<path d="M39.998 3.798c-1.558 0.653-3.155 1.075-4.712 1.266 1.792-1.035 2.96-2.531 3.621-4.45-1.505 0.87-3.254 1.536-5.111 1.901l-0.108 0.018c-1.634-1.688-3.621-2.533-5.997-2.533-2.259 0-4.208 0.806-5.803 2.379-1.597 1.573-2.416 3.491-2.416 5.717 0 0.614 0.080 1.227 0.195 1.842-3.465-0.154-6.686-1.058-9.55-2.554l0.126 0.060c-2.944-1.518-5.429-3.513-7.452-5.911l-0.029-0.036c-0.708 1.161-1.128 2.565-1.13 4.067v0c0 1.382 0.312 2.686 0.974 3.837 0.655 1.172 1.548 2.138 2.619 2.86l0.029 0.019c-1.366-0.033-2.637-0.414-3.736-1.057l0.037 0.020v0.115c0 1.957 0.624 3.646 1.869 5.142 1.248 1.458 2.805 2.416 4.714 2.8-0.702 0.192-1.442 0.269-2.144 0.269-0.466 0-0.973-0.038-1.557-0.115 0.507 1.613 1.48 2.955 2.882 3.99 1.403 1.037 3 1.574 4.792 1.613-2.96 2.301-6.389 3.453-10.166 3.453-0.739 0-1.402-0.038-1.986-0.115 3.818 2.416 8.024 3.606 12.581 3.606 2.922 0 5.648-0.461 8.219-1.344 2.57-0.92 4.752-2.109 6.544-3.643 1.785-1.522 3.328-3.252 4.615-5.167l0.057-0.090c1.217-1.786 2.213-3.85 2.88-6.056l0.042-0.16c0.624-2.149 0.974-4.336 0.974-6.485 0-0.459 0-0.805-0.040-1.035 1.642-1.162 3.025-2.561 4.133-4.165l0.036-0.055z"></path>
</svg>
