<!-- Generated by IcoMoon.io -->
<svg version="1.1" xmlns="http://www.w3.org/2000/svg" width="46" height="32" viewBox="0 0 46 32">
<title>Youtube</title>
<path d="M44.778 12.24c0-0.883-0.077-2.034-0.23-3.414-0.114-1.388-0.305-2.647-0.573-3.877l0.035 0.192c-0.262-1.22-0.874-2.268-1.725-3.066l-0.003-0.003c-0.88-0.845-1.917-1.304-3.107-1.458-3.683-0.422-9.285-0.614-16.768-0.614-7.478 0-13.082 0.192-16.765 0.614-1.189 0.154-2.224 0.613-3.107 1.458-0.854 0.8-1.466 1.849-1.721 3.030l-0.007 0.039c-0.267 1.075-0.421 2.304-0.576 3.685-0.114 1.381-0.19 2.531-0.23 3.414v3.76c0 1.611 0 2.84 0.038 3.76 0 0.883 0.077 2.034 0.23 3.414 0.077 1.382 0.269 2.61 0.499 3.685 0.267 1.227 0.843 2.224 1.726 3.069 0.882 0.845 1.918 1.304 3.107 1.458 3.683 0.422 9.286 0.614 16.768 0.614s13.083-0.192 16.768-0.614c1.189-0.115 2.224-0.613 3.107-1.458 0.853-0.801 1.464-1.849 1.719-3.030l0.007-0.038c0.269-1.075 0.422-2.304 0.576-3.685 0.115-1.381 0.192-2.531 0.23-3.414 0-0.882 0.038-2.149 0.038-3.76s0-2.84-0.038-3.76zM31.27 17.344l-12.816 8.018c-0.235 0.167-0.527 0.267-0.843 0.269h-0c-0.281-0.010-0.544-0.080-0.779-0.197l0.011 0.005c-0.536-0.307-0.843-0.768-0.843-1.419v-16c0-0.653 0.269-1.112 0.845-1.419s1.112-0.269 1.611 0.038l12.814 8.019c0.499 0.269 0.768 0.728 0.768 1.342-0.038 0.614-0.269 1.074-0.768 1.344z"></path>
</svg>
